<?xml version="1.0"?>
<svg xmlns="http://www.w3.org/2000/svg" xmlns:xlink="http://www.w3.org/1999/xlink" xmlns:svgjs="http://svgjs.com/svgjs" version="1.1" width="512" height="512" x="0" y="0" viewBox="0 0 512 512" style="enable-background:new 0 0 512 512" xml:space="preserve" class=""><g><g xmlns="http://www.w3.org/2000/svg"><g><path d="m76.646 158.249v-12.018c0-4.098 4.708-7.559 10.281-7.559 4.138 0 7.493-3.355 7.493-7.493s-3.355-7.493-7.493-7.493c-13.932 0-25.267 10.114-25.267 22.545v11.282c-.731 3.311-2.208 4.434-4.463 5.202-3.035 1.035-5.075 3.886-5.075 7.092 0 3.207 2.041 6.058 5.075 7.093 2.255.768 3.732 1.891 4.463 5.202v11.283c0 12.432 11.335 22.545 25.267 22.545 4.138 0 7.493-3.355 7.493-7.493s-3.355-7.493-7.493-7.493c-5.573 0-10.281-3.462-10.281-7.559v-12.019c0-.447-.04-.893-.12-1.333-.784-4.34-2.365-7.67-4.333-10.226 1.968-2.556 3.549-5.887 4.333-10.226.08-.44.12-.885.12-1.332z" fill="#106fde" data-original="#000000" style="" class=""/><path d="m352.26 207.281c-2.255-.768-3.732-1.891-4.463-5.202v-11.282c0-12.432-11.335-22.545-25.267-22.545-4.138 0-7.493 3.355-7.493 7.493s3.355 7.493 7.493 7.493c5.573 0 10.281 3.462 10.281 7.559v12.018c0 .447.04.893.12 1.333.784 4.34 2.365 7.67 4.333 10.226-1.968 2.556-3.549 5.886-4.333 10.226-.08.44-.12.886-.12 1.333v12.018c0 4.098-4.708 7.559-10.281 7.559-4.138 0-7.493 3.355-7.493 7.493s3.355 7.493 7.493 7.493c13.932 0 25.267-10.114 25.267-22.545v-11.282c.731-3.311 2.208-4.434 4.463-5.202 3.035-1.035 5.075-3.886 5.075-7.093.001-3.207-2.04-6.058-5.075-7.093z" fill="#106fde" data-original="#000000" style="" class=""/><path d="m119.397 154.593h21.637c4.138 0 7.493-3.355 7.493-7.493s-3.355-7.493-7.493-7.493h-21.637c-4.138 0-7.493 3.355-7.493 7.493 0 4.139 3.354 7.493 7.493 7.493z" fill="#106fde" data-original="#000000" style="" class=""/><path d="m237.096 282.826h-117.699c-4.138 0-7.493 3.355-7.493 7.493s3.355 7.493 7.493 7.493h117.699c4.138 0 7.493-3.355 7.493-7.493 0-4.139-3.355-7.493-7.493-7.493z" fill="#106fde" data-original="#000000" style="" class=""/><path d="m119.397 211.881h21.637c4.138 0 7.493-3.355 7.493-7.493s-3.355-7.493-7.493-7.493h-21.637c-4.138 0-7.493 3.355-7.493 7.493s3.354 7.493 7.493 7.493z" fill="#106fde" data-original="#000000" style="" class=""/><path d="m119.397 240.525h21.637c4.138 0 7.493-3.355 7.493-7.493s-3.355-7.493-7.493-7.493h-21.637c-4.138 0-7.493 3.355-7.493 7.493s3.354 7.493 7.493 7.493z" fill="#106fde" data-original="#000000" style="" class=""/><path d="m237.096 254.182h-21.638c-4.138 0-7.493 3.355-7.493 7.493s3.355 7.493 7.493 7.493h21.638c4.138 0 7.493-3.355 7.493-7.493s-3.355-7.493-7.493-7.493z" fill="#106fde" data-original="#000000" style="" class=""/><path d="m119.397 269.168h64.237c4.138 0 7.493-3.355 7.493-7.493s-3.355-7.493-7.493-7.493h-64.237c-4.138 0-7.493 3.355-7.493 7.493s3.354 7.493 7.493 7.493z" fill="#106fde" data-original="#000000" style="" class=""/><path d="m194.612 211.881c4.138 0 7.493-3.355 7.493-7.493s-3.355-7.493-7.493-7.493h-21.637c-4.138 0-7.493 3.355-7.493 7.493s3.355 7.493 7.493 7.493z" fill="#106fde" data-original="#000000" style="" class=""/><path d="m282.191 196.895h-61.186c-4.138 0-7.493 3.355-7.493 7.493s3.355 7.493 7.493 7.493h61.186c4.138 0 7.493-3.355 7.493-7.493.001-4.138-3.354-7.493-7.493-7.493z" fill="#106fde" data-original="#000000" style="" class=""/><path d="m141.034 316.096h-21.637c-4.138 0-7.493 3.355-7.493 7.493s3.355 7.493 7.493 7.493h21.637c4.138 0 7.493-3.355 7.493-7.493s-3.355-7.493-7.493-7.493z" fill="#106fde" data-original="#000000" style="" class=""/><path d="m141.034 344.74h-21.637c-4.138 0-7.493 3.355-7.493 7.493s3.355 7.493 7.493 7.493h21.637c4.138 0 7.493-3.355 7.493-7.493s-3.355-7.493-7.493-7.493z" fill="#106fde" data-original="#000000" style="" class=""/><path d="m194.612 316.096h-21.637c-4.138 0-7.493 3.355-7.493 7.493s3.355 7.493 7.493 7.493h21.637c4.138 0 7.493-3.355 7.493-7.493s-3.355-7.493-7.493-7.493z" fill="#106fde" data-original="#000000" style="" class=""/><path d="m237.096 316.096h-16.091c-4.138 0-7.493 3.355-7.493 7.493s3.355 7.493 7.493 7.493h16.091c4.138 0 7.493-3.355 7.493-7.493s-3.355-7.493-7.493-7.493z" fill="#106fde" data-original="#000000" style="" class=""/><path d="m172.975 154.593h149.4c4.138 0 7.493-3.355 7.493-7.493s-3.355-7.493-7.493-7.493h-149.4c-4.138 0-7.493 3.355-7.493 7.493 0 4.139 3.354 7.493 7.493 7.493z" fill="#106fde" data-original="#000000" style="" class=""/><path d="m282.191 168.251h-162.794c-4.138 0-7.493 3.355-7.493 7.493s3.355 7.493 7.493 7.493h162.795c4.138 0 7.493-3.355 7.493-7.493s-3.355-7.493-7.494-7.493z" fill="#106fde" data-original="#000000" style="" class=""/><path d="m483.296 319.751h-20.219l-17.6-26.595c-4.28-6.469-11.467-10.331-19.223-10.331h-16.796v-226.395c0-11.901-9.682-21.583-21.583-21.583h-273.872c-4.138 0-7.493 3.355-7.493 7.493s3.355 7.493 7.493 7.493h273.872c3.638 0 6.597 2.959 6.597 6.596v29.293h-379.486v-29.292c0-3.637 2.959-6.596 6.597-6.596h57.227c4.138 0 7.493-3.355 7.493-7.493s-3.355-7.493-7.493-7.493h-57.227c-11.901-.001-21.583 9.681-21.583 21.582v319.675c0 11.901 9.682 21.583 21.583 21.583h240.638v50.761c0 15.827 12.877 28.704 28.704 28.704h100.322c4.138 0 7.493-3.355 7.493-7.493s-3.355-7.493-7.493-7.493h-100.322c-7.564 0-13.718-6.154-13.718-13.718v-142.571c0-4.448 3.618-8.066 8.066-8.066h49.227c2.711 0 5.224 1.349 6.722 3.608l19.872 29.966c1.388 2.093 3.733 3.352 6.245 3.352h115.958c7.564 0 13.718 6.154 13.718 13.718v99.993c0 7.564-6.154 13.718-13.718 13.718h-57.294c-4.138 0-7.493 3.355-7.493 7.493s3.355 7.493 7.493 7.493h57.294c15.828 0 28.704-12.877 28.704-28.704v-99.993c-.001-15.828-12.878-28.705-28.705-28.705zm-198.023-36.925c-12.711 0-23.052 10.341-23.052 23.052v76.824h-240.638c-3.638 0-6.597-2.959-6.597-6.597v-275.241h379.486v181.962zm86.086 36.925-14.549-21.94h69.444c2.714 0 5.228 1.351 6.726 3.615l12.127 18.325z" fill="#106fde" data-original="#000000" style="" class=""/></g></g></g></svg>
