<?xml version="1.0"?>
<svg xmlns="http://www.w3.org/2000/svg" xmlns:xlink="http://www.w3.org/1999/xlink" xmlns:svgjs="http://svgjs.com/svgjs" version="1.1" width="512" height="512" x="0" y="0" viewBox="0 0 512 512" style="enable-background:new 0 0 512 512" xml:space="preserve" class=""><g><g xmlns="http://www.w3.org/2000/svg"><path d="m504.5 187.477c-4.143 0-7.5 3.358-7.5 7.5v172h-417c-4.143 0-7.5 3.358-7.5 7.5s3.357 7.5 7.5 7.5h19.399v69h-71.899c-6.893 0-12.5-5.607-12.5-12.5v-56.5h30c4.143 0 7.5-3.358 7.5-7.5s-3.357-7.5-7.5-7.5h-30v-237.5c0-6.893 5.607-12.5 12.5-12.5h143.5c4.143 0 7.5-3.358 7.5-7.5s-3.357-7.5-7.5-7.5h-143.5c-15.164 0-27.5 12.336-27.5 27.5v309c0 15.164 12.336 27.5 27.5 27.5h457c15.164 0 27.5-12.336 27.5-27.5v-243.5c0-4.142-3.357-7.5-7.5-7.5zm-191.3 194.5h84.4v69h-84.4zm-15 69h-84.4v-69h84.4zm-183.801-69h84.4v69h-84.4zm370.101 69h-71.9v-69h84.4v56.5c0 6.892-5.607 12.5-12.5 12.5z" fill="#106fde" data-original="#000000" style="" class=""/><path d="m485.558 102.004c4.423-14.83.793-31.571-10.896-43.26-16.96-16.959-44.556-16.96-61.52 0l-22.98 22.981-.624-.624c-11.893-11.893-31.242-11.893-43.135 0-5.77 5.771-8.731 13.297-8.902 20.876h-131.501c-4.143 0-7.5 3.358-7.5 7.5s3.357 7.5 7.5 7.5h135.037c.876 1.654 2.986 4.875 5.991 7.881l-87.778 87.78c-3.702 3.702-6.621 7.941-8.745 12.493-26.621 2.745-47.005 25.038-47.005 52.204 0 28.949 23.552 52.5 52.5 52.5 27.161 0 49.4-20.316 52.191-46.895 4.584-2.128 8.852-5.06 12.576-8.784l17.332-17.332c2.93-2.929 2.93-7.678.001-10.606-2.93-2.929-7.678-2.93-10.607 0l-17.332 17.332c-7.73 7.732-18.979 10.385-29.349 6.928-2.698-.898-5.667-.197-7.676 1.812l-11.312 11.313c-3.314 3.314-8.709 3.314-12.021 0-3.314-3.314-3.314-8.707-.001-12.021l11.314-11.314c2.01-2.009 2.711-4.98 1.812-7.675-3.458-10.372-.803-21.618 6.929-29.349l14.615-14.615c4.993 3.09 10.697 4.276 16.819 4.276 10.195 0 21.547-3.283 32.688-6.506 14.172-4.099 28.745-8.31 37.975-4.643l-19.712 19.712c-2.929 2.929-2.929 7.678 0 10.606 1.465 1.465 3.384 2.197 5.304 2.197 1.919 0 3.839-.732 5.304-2.197l45.7-45.699c4.847 5.211 13.63 9.637 22.191 9.557 8.146 0 15.806-3.172 21.565-8.933 5.762-5.76 8.935-13.42 8.935-21.567s-3.173-15.806-8.934-21.566l-.624-.624c6.38-6.57 21.201-20.78 25.95-26.266h6.869c6.893 0 12.5 5.607 12.5 12.5v30.5c0 4.142 3.357 7.5 7.5 7.5s7.5-3.358 7.5-7.5v-30.5c-.002-14.808-11.77-26.914-26.444-27.472zm-246.364 158.972c-9.162 9.162-9.162 24.071.001 33.234 4.581 4.581 10.599 6.871 16.616 6.871 6.019 0 12.036-2.291 16.618-6.871l8.237-8.237c3.861.842 7.76 1.133 11.606.929-4.206 16.183-18.816 27.933-36.273 27.933-20.678 0-37.5-16.822-37.5-37.5 0-17.464 11.793-32.107 28.009-36.292-.213 3.875.075 7.805.923 11.695zm143.831-70.291c-14.52-9.883-34.972-3.971-53.216 1.306-12.591 3.642-25.516 7.376-33.929 5.23l61.756-61.756 40.305 40.305zm58.672-14.291c-2.927 2.927-6.819 4.54-10.959 4.54-4.141 0-8.033-1.612-10.96-4.54l-62.767-62.766c-6.043-6.043-6.043-15.877 0-21.92 3.021-3.021 6.99-4.533 10.96-4.533s7.938 1.511 10.96 4.533l62.767 62.766c2.927 2.928 4.54 6.82 4.54 10.96s-1.613 8.032-4.541 10.96zm-.623-43.758-40.304-40.305 22.979-22.981c11.114-11.114 29.195-11.112 40.306 0 11.112 11.112 11.112 29.193 0 40.306z" fill="#106fde" data-original="#000000" style="" class=""/></g></g></svg>
