<?xml version="1.0" encoding="utf-8"?>
<!-- Generator: Adobe Illustrator 24.0.2, SVG Export Plug-In . SVG Version: 6.00 Build 0)  -->
<svg version="1.1" xmlns="http://www.w3.org/2000/svg" xmlns:xlink="http://www.w3.org/1999/xlink" x="0px" y="0px"
	 viewBox="0 0 500 500" style="enable-background:new 0 0 500 500;" xml:space="preserve">
<style type="text/css">
	.st0{fill:#EBEBEB;}
	.st1{fill:#F0F0F0;}
	.st2{fill:#F5F5F5;}
	.st3{fill:#E0E0E0;}
	.st4{fill:#FFFFFF;}
	.st5{fill:#E6E6E6;}
	.st6{display:none;}
	.st7{display:inline;}
	.st8{opacity:0.9;}
	.st9{fill:#407BFF;}
	.st10{opacity:0.3;fill:#263238;}
	.st11{fill:#263238;}
	.st12{opacity:0.1;fill:#FFFFFF;}
	.st13{opacity:0.2;fill:#FFFFFF;}
	.st14{opacity:0.2;}
	.st15{fill:#A02724;}
	.st16{fill:#B55B52;}
	.st17{opacity:0.3;fill:#FFFFFF;}
	.st18{opacity:0.4;fill:#FFFFFF;}
	.st19{opacity:0.3;}
	.st20{opacity:0.5;}
	.st21{fill:#FFC3BD;}
	.st22{fill:#ED847E;}
</style>
<g id="Background_Complete">
	<g>
		<rect y="382.4" class="st0" width="500" height="0.3"/>
		<rect x="396.8" y="398.5" class="st0" width="53.1" height="0.3"/>
		<rect x="272.6" y="395.4" class="st0" width="58.7" height="0.3"/>
		<rect x="380.2" y="393.9" class="st0" width="19.2" height="0.3"/>
		<rect x="100.5" y="390.9" class="st0" width="43.2" height="0.3"/>
		<rect x="79.5" y="390.9" class="st0" width="15.4" height="0.3"/>
		<rect x="131.5" y="395.1" class="st0" width="54.2" height="0.3"/>
		<path class="st0" d="M237,337.8H43.9c-3.1,0-5.7-2.6-5.7-5.7V60.7c0-3.1,2.6-5.7,5.7-5.7H237c3.1,0,5.7,2.6,5.7,5.7v271.4
			C242.7,335.2,240.2,337.8,237,337.8z M43.9,55.2c-3,0-5.5,2.4-5.5,5.5v271.4c0,3,2.4,5.5,5.5,5.5H237c3,0,5.5-2.4,5.5-5.5V60.7
			c0-3-2.4-5.5-5.5-5.5H43.9z"/>
		<path class="st0" d="M453.3,337.8H260.2c-3.1,0-5.7-2.6-5.7-5.7V60.7c0-3.1,2.6-5.7,5.7-5.7h193.1c3.1,0,5.7,2.6,5.7,5.7v271.4
			C459,335.2,456.5,337.8,453.3,337.8z M260.2,55.2c-3,0-5.5,2.4-5.5,5.5v271.4c0,3,2.4,5.5,5.5,5.5h193.1c3,0,5.5-2.4,5.5-5.5V60.7
			c0-3-2.4-5.5-5.5-5.5H260.2z"/>
	</g>
	<g>
		<g>
			
				<rect x="266.7" y="248.9" transform="matrix(-1 -1.224647e-16 1.224647e-16 -1 543.933 622.8486)" class="st1" width="10.5" height="125"/>
			
				<rect x="64.7" y="373.9" transform="matrix(-1 -1.224647e-16 1.224647e-16 -1 337.9307 756.2121)" class="st1" width="208.4" height="8.3"/>
			<rect x="60.7" y="248.9" class="st2" width="206" height="125"/>
			
				<rect x="269.2" y="241" transform="matrix(-1 -1.224647e-16 1.224647e-16 -1 549.2296 489.9375)" class="st3" width="10.9" height="7.9"/>
			<rect x="57.9" y="241" class="st0" width="211.3" height="7.9"/>
			<path class="st4" d="M250.7,301.7H76.8c-4.3,0-7.8-3.5-7.8-7.8v-27.6c0-4.3,3.5-7.8,7.8-7.8h173.9c4.3,0,7.8,3.5,7.8,7.8V294
				C258.4,298.3,255,301.7,250.7,301.7z"/>
			<path class="st4" d="M250.7,357.8H76.8c-4.3,0-7.8-3.5-7.8-7.8v-27.6c0-4.3,3.5-7.8,7.8-7.8h173.9c4.3,0,7.8,3.5,7.8,7.8V350
				C258.4,354.3,255,357.8,250.7,357.8z"/>
			<path class="st2" d="M118.9,263.2h89.6c1,0,1.8-0.8,1.8-1.8v-2.4c0-1-0.8-1.8-1.8-1.8h-89.6c-1,0-1.8,0.8-1.8,1.8v2.4
				C117.2,262.4,118,263.2,118.9,263.2z"/>
			<path class="st2" d="M118.9,319.2h89.6c1,0,1.8-0.8,1.8-1.8v-2.4c0-1-0.8-1.8-1.8-1.8h-89.6c-1,0-1.8,0.8-1.8,1.8v2.4
				C117.2,318.4,118,319.2,118.9,319.2z"/>
		</g>
		<g>
			<g>
				<g>
					<rect x="415.5" y="289.9" class="st5" width="31.7" height="6.1"/>
					
						<rect x="391.2" y="175" transform="matrix(-1 -1.224647e-16 1.224647e-16 -1 788.2515 557.4012)" class="st5" width="5.9" height="207.4"/>
					
						<rect x="370.9" y="289.9" transform="matrix(-1 -1.224647e-16 1.224647e-16 -1 786.4259 585.913)" class="st2" width="44.6" height="6.1"/>
					<rect x="415.5" y="345.7" class="st5" width="31.7" height="6.1"/>
					
						<rect x="370.9" y="345.7" transform="matrix(-1 -1.224647e-16 1.224647e-16 -1 786.4259 697.5204)" class="st2" width="44.6" height="6.1"/>
					<rect x="415.5" y="178.3" class="st5" width="31.7" height="6.1"/>
					
						<rect x="370.9" y="178.3" transform="matrix(-1 -1.224647e-16 1.224647e-16 -1 786.4259 362.6984)" class="st2" width="44.6" height="6.1"/>
					<rect x="415.5" y="234.1" class="st5" width="31.7" height="6.1"/>
					
						<rect x="370.9" y="234.1" transform="matrix(-1 -1.224647e-16 1.224647e-16 -1 786.4259 474.3058)" class="st2" width="44.6" height="6.1"/>
				</g>
			</g>
			
				<rect x="435.8" y="175" transform="matrix(-1 -1.224647e-16 1.224647e-16 -1 877.3697 557.4012)" class="st5" width="5.9" height="207.4"/>
			
				<rect x="409.6" y="175" transform="matrix(-1 -1.224647e-16 1.224647e-16 -1 825.1334 557.4012)" class="st2" width="5.9" height="207.4"/>
			
				<rect x="370.9" y="175" transform="matrix(-1 -1.224647e-16 1.224647e-16 -1 747.7183 557.4012)" class="st2" width="5.9" height="207.4"/>
		</g>
		<g>
			<g>
				
					<rect x="87.9" y="83.4" transform="matrix(-1 -1.224647e-16 1.224647e-16 -1 439.9657 307.0069)" class="st3" width="264.2" height="140.3"/>
				
					<rect x="81.2" y="83.4" transform="matrix(-1 -1.224647e-16 1.224647e-16 -1 429.5382 307.0069)" class="st2" width="267.1" height="140.3"/>
				
					<rect x="155.7" y="29.5" transform="matrix(-1.836970e-16 1 -1 -1.836970e-16 368.2727 -61.2657)" class="st4" width="118.2" height="248"/>
			</g>
		</g>
	</g>
</g>
<g id="Background_Simple" class="st6">
	<g class="st7">
		<g class="st8">
			<path class="st9" d="M61.3,245.4c-34.5-89,77.5-140.5,142.2-130.6c25.7,3.9,36,12,61.4,2.4c18.4-7,27.8-28.6,48.2-33.3
				c44.6-10.4,91.8,30.9,102.5,68.7c11.1,39.3,0.3,79.9-34.6,94.1c-25.6,10.4-51.7-2.9-66.7,3.5c-30.8,13.2-29.4,34.2-47.6,56.5
				C199.8,388.7,92.6,326.2,61.3,245.4z"/>
		</g>
		<g class="st8">
			<path class="st4" d="M61.3,245.4c-34.5-89,77.5-140.5,142.2-130.6c25.7,3.9,36,12,61.4,2.4c18.4-7,27.8-28.6,48.2-33.3
				c44.6-10.4,91.8,30.9,102.5,68.7c11.1,39.3,0.3,79.9-34.6,94.1c-25.6,10.4-51.7-2.9-66.7,3.5c-30.8,13.2-29.4,34.2-47.6,56.5
				C199.8,388.7,92.6,326.2,61.3,245.4z"/>
		</g>
	</g>
</g>
<g id="Shadow_1_">
	<ellipse id="_x3C_Path_x3E__261_" class="st2" cx="250" cy="416.2" rx="193.9" ry="11.3"/>
</g>
<g id="Desk">
	<g>
		<g>
			<g>
				<g>
					<path class="st9" d="M387.8,264.2H110.5c-1.8,0-3.3-1.5-3.3-3.3l0,0c0-1.8,1.5-3.3,3.3-3.3h277.3c1.8,0,3.3,1.5,3.3,3.3l0,0
						C391.1,262.7,389.6,264.2,387.8,264.2z"/>
					<path class="st10" d="M387.8,264.2h-64.9c-1.8,0-3.3-1.5-3.3-3.3l0,0c0-1.8,1.5-3.3,3.3-3.3h64.9c1.8,0,3.3,1.5,3.3,3.3l0,0
						C391.1,262.7,389.6,264.2,387.8,264.2z"/>
				</g>
				<g>
					<g>
						<rect x="167.5" y="272.6" class="st11" width="213.3" height="23.2"/>
						<rect x="167.5" y="272.6" class="st12" width="213.3" height="23.2"/>
					</g>
					<g>
						<polygon class="st11" points="377.7,411.6 384.1,411.6 383.8,264.2 375,264.2 						"/>
						<polygon class="st12" points="377.7,411.6 384.1,411.6 383.8,264.2 375,264.2 						"/>
					</g>
					<g>
						<polygon class="st11" points="318.9,411.6 312.5,411.6 326.9,264.2 335.8,264.2 						"/>
						<polygon class="st13" points="318.9,411.6 312.5,411.6 326.9,264.2 335.8,264.2 						"/>
					</g>
					<g>
						<polygon class="st11" points="165.3,411.6 171.7,411.6 171.4,264.2 162.6,264.2 						"/>
						<polygon class="st12" points="165.3,411.6 171.7,411.6 171.4,264.2 162.6,264.2 						"/>
					</g>
					<g>
						<polygon class="st11" points="106.5,411.6 100.1,411.6 114.6,264.2 123.4,264.2 						"/>
						<polygon class="st13" points="106.5,411.6 100.1,411.6 114.6,264.2 123.4,264.2 						"/>
					</g>
				</g>
			</g>
		</g>
		<g>
			<polygon class="st11" points="286.1,257.6 271.4,257.6 265.5,228.8 280.2,228.8 			"/>
			<path class="st11" d="M305.6,251.6h-63.9c-2.1,0-3.7-1.7-3.6-3.8l2.4-40.4c0.1-2.1,2-3.8,4.1-3.8h63.9c2.1,0,3.7,1.7,3.6,3.8
				l-2.4,40.4C309.6,249.9,307.8,251.6,305.6,251.6z"/>
			<path class="st9" d="M304.6,251.6h-63.9c-2.1,0-3.7-1.7-3.6-3.8l2.4-40.4c0.1-2.1,2-3.8,4.1-3.8h63.9c2.1,0,3.7,1.7,3.6,3.8
				l-2.4,40.4C308.6,249.9,306.8,251.6,304.6,251.6z"/>
			<path class="st4" d="M240.8,249.6c-0.5,0-0.9-0.2-1.2-0.5c-0.3-0.3-0.5-0.8-0.4-1.2l2.4-40.4c0.1-1.1,1-2,2.1-2h63.9
				c0.5,0,0.9,0.2,1.2,0.5c0.3,0.3,0.5,0.8,0.4,1.2l-2.4,40.4c-0.1,1.1-1,2-2.1,2H240.8z"/>
			<polygon class="st14" points="268.8,203.5 273,217.7 285.3,203.5 			"/>
		</g>
	</g>
</g>
<g id="Character_1_">
	<g>
		<g>
			<path class="st11" d="M169.6,169c0.1,0.8,0.6,1.4,1.1,1.3c0.5,0,0.8-0.7,0.7-1.5s-0.6-1.4-1.1-1.3
				C169.8,167.6,169.5,168.3,169.6,169z"/>
			<path class="st15" d="M170.4,170.1c0,0,1.7,3.8,3.5,5.6c-1.1,1.1-3.1,0.7-3.1,0.7L170.4,170.1z"/>
			<path class="st11" d="M167,166.1c-0.1,0-0.2,0-0.2,0c-0.2-0.1-0.3-0.4-0.3-0.6c0.9-2.3,3-2.7,3.1-2.7c0.2-0.1,0.5,0.1,0.5,0.4
				c0,0.2-0.1,0.5-0.4,0.5c-0.1,0-1.7,0.3-2.4,2.1C167.3,165.9,167.2,166,167,166.1z"/>
			<path class="st16" d="M146.9,181.1l6,4.6l8.2,6.3c-0.3,0.3-0.7,1.9-0.8,3c-0.3,2.3-0.6,4.1,4.5,5.4c1.1,0.3,2,1.1,2.2,2.3
				c0.2,1.4-0.6,3-5.4,3.8c-5.5,0.9-9.9-0.6-13.3-2.3c-2-1-2.1-2.2-1.2-4.2C149.7,194.2,148.4,186.8,146.9,181.1z"/>
			<path class="st9" d="M140,201.8c2-3.9,2.8-6.9,2.8-6.9s15.2-0.8,20.2,0.7s8.1,8,8.1,8L140,201.8z"/>
			<g>
				<path class="st16" d="M146.4,213.1c-0.4,1.1-0.8,2.5-1.2,3.8l-1.1,3.9c-0.7,2.6-1.4,5.2-1.9,7.8c-0.6,2.6-1,5.2-1.3,7.7
					c-0.3,2.5-0.4,5-0.2,7.2c0.1,1.1,0.2,2.1,0.5,3c0.1,0.2,0.1,0.4,0.2,0.6c0.1,0.2,0.1,0.4,0.2,0.5l0,0c0,0,0,0,0,0
					c-0.1-0.1-0.1-0.2-0.2-0.3c-0.1-0.2-0.2-0.3-0.3-0.4c-0.2-0.2-0.3-0.3-0.4-0.4c-0.2-0.1-0.2-0.1-0.2-0.1
					c0.1,0.1,0.5,0.3,0.9,0.5c0.5,0.2,1,0.4,1.5,0.6c1.1,0.4,2.4,0.7,3.7,1.1c5.2,1.3,10.8,2.3,16.3,3.5l-0.2,6.9
					c-3,0.4-5.9,0.6-8.8,0.7c-3,0.1-5.9,0.1-9-0.1c-1.5-0.1-3.1-0.3-4.7-0.6c-0.8-0.1-1.7-0.3-2.6-0.6c-0.9-0.3-1.9-0.5-3-1.1
					c-0.6-0.3-1.2-0.7-2-1.2c-0.4-0.3-0.8-0.7-1.2-1.2c-0.2-0.3-0.4-0.5-0.6-0.9c-0.1-0.2-0.2-0.3-0.3-0.5l-0.1-0.2l-0.7-1.4
					c-0.2-0.5-0.4-0.9-0.6-1.4c-0.7-1.8-1.1-3.7-1.4-5.4c-1-7-0.2-13.1,0.8-19.2c0.6-3,1.2-6,2-8.9c0.4-1.5,0.8-2.9,1.3-4.3
					c0.5-1.5,0.9-2.8,1.5-4.4L146.4,213.1z"/>
				<g>
					<path class="st9" d="M137.1,200.5c9.5-2.5,15.1,5.2,11.9,18c-3.2,12.8-4.3,13.2-4.3,13.2l-19.5-3.3
						C127.6,215.9,127.4,203.1,137.1,200.5z"/>
				</g>
				<path class="st16" d="M167.6,249.3l-1.5-0.1c-4.2,0-4.9,1.1-7.5,3.5l-1,5.3c6.7,3.5,10.4-0.3,10.4-0.3h6.3l-2.2-5.1
					C171.4,250.7,169.6,249.4,167.6,249.3z"/>
			</g>
			<path class="st16" d="M144.3,171.1c1.7,9.1,2.2,14.5,7.4,18.6c7.8,6.1,18.6,0.3,19.7-9.2c0.9-8.5-2-22-11.4-24.4
				C150.7,153.8,142.6,162,144.3,171.1z"/>
			<path class="st11" d="M162.4,174.3c6.5-0.5,4.6-7.4,2.6-8.8c3-1.2,5.2-6,2.2-9.3c1.7-4.5-3.2-9.9-11.8-9.1c-6.3,0.6-7,3.9-7,3.9
				s-7.6-0.8-10.7,5.4c-2.7,5.3,0.6,8.2,0.6,8.2s-5.6,1.6-4.1,9c1.7,7.9,7.8,6.1,7.8,6.1s-1.4,7.3,6.9,7.4c7.1,0.1,7.2-5.2,7.2-5.2
				S165.2,181,162.4,174.3z"/>
			<path class="st16" d="M157.5,174.8c0.8,2.1,2.4,3.7,4,4.5c2.4,1.2,4.2-1.3,3.8-3.9c-0.4-2.3-2.4-5.3-4.9-5.5
				C157.9,169.9,156.6,172.4,157.5,174.8z"/>
			<g>
				<g>
					<g>
						<g>
							<g>
								<polygon class="st16" points="254.5,400.2 263.4,396.6 257.1,375.2 248.2,378.8 								"/>
								<polygon class="st14" points="251.2,389.2 260.2,385.9 257.1,375.2 248.2,378.8 								"/>
								<path class="st11" d="M262.6,392.9l-10.2,3.5c-0.4,0.1-0.6,0.5-0.5,0.9l2.3,8.2c0.2,0.9,1.3,1.4,2.1,1.1
									c3.5-1.3,4.9-2,9.3-3.9c2.7-1.2,9.1-3.9,12.5-6c3.4-2,1.3-5.4-0.3-4.9c-3.9,1.3-10.3,2.2-13.6,1.1
									C263.8,392.8,263.1,392.8,262.6,392.9z"/>
								<g>
									<path class="st11" d="M183.1,276.9c0,0,67.2,6.1,68.9,25.4c3.5,39.3,8.9,77.3,8.9,77.3l-13.7,5c0,0-16.7-43.2-16.5-74
										c-19.4-5.5-70.3,2.6-78.7-12.4c-7.4-13.2-0.9-22.7-0.9-22.7L183.1,276.9z"/>
								</g>
								<polygon class="st9" points="246.2,387.7 263.2,381.9 262.5,374.2 243.3,380.4 								"/>
								<path class="st9" d="M266.3,393.4c-0.8,0.3-1.8,0.4-2.5,0.5c-0.1,0-0.2,0-0.2-0.1c0-0.1,0-0.2,0-0.2
									c0.2-0.3,2.2-2.9,3.4-2.9c0.3,0,0.5,0.2,0.7,0.4c0.3,0.4,0.3,0.9,0.1,1.2C267.6,392.8,267,393.2,266.3,393.4z M264.3,393.4
									c1.7-0.2,2.9-0.7,3.2-1.3c0.1-0.2,0.1-0.5-0.1-0.8c-0.1-0.1-0.2-0.2-0.3-0.2C266.3,391.1,265.1,392.4,264.3,393.4z"/>
								<path class="st9" d="M263.9,393.9c0,0-0.1,0-0.1,0c-0.1,0-0.1-0.1-0.2-0.1c0-0.1-1.2-2.6-0.5-3.8c0.2-0.3,0.4-0.5,0.8-0.6
									c0.4-0.1,0.8,0,1,0.4C265.4,390.6,264.7,393,263.9,393.9C263.9,393.9,263.9,393.9,263.9,393.9z M263.8,389.8
									c-0.2,0.1-0.3,0.2-0.4,0.3c-0.4,0.7,0.1,2.2,0.4,3.1c0.6-0.9,1-2.7,0.6-3.3c-0.1-0.1-0.2-0.2-0.5-0.2
									C263.9,389.8,263.9,389.8,263.8,389.8z"/>
							</g>
							<g>
								<polygon class="st16" points="206.9,406.5 216.4,406.1 218,383.6 208.5,384.1 								"/>
								<path class="st11" d="M216.6,404.4l-10.8-0.3c-0.4,0-0.7,0.3-0.7,0.6l-0.8,8.5c-0.1,0.9,0.7,1.7,1.6,1.8
									c3.7,0.1,5.5-0.1,10.3,0c2.9,0.1,8.6,0.5,12.6,0c3.9-0.5,3.4-4.4,1.6-4.6c-4.1-0.3-9.6-3.2-12.3-5.4
									C217.8,404.7,217.2,404.5,216.6,404.4z"/>
								<path class="st9" d="M220,406.2c-0.9,0-1.9-0.2-2.5-0.4c-0.1,0-0.1-0.1-0.2-0.2c0-0.1,0-0.2,0.1-0.2c0.3-0.2,3.1-2,4.2-1.5
									c0.3,0.1,0.4,0.3,0.5,0.6c0.1,0.5,0,0.9-0.3,1.2C221.4,406.1,220.7,406.2,220,406.2z M218,405.5c1.7,0.4,3,0.4,3.4,0
									c0.2-0.2,0.3-0.4,0.2-0.8c0-0.2-0.1-0.3-0.2-0.3C220.8,404.1,219.2,404.8,218,405.5z"/>
								<path class="st9" d="M217.5,405.8c0,0-0.1,0-0.1,0c-0.1,0-0.1-0.1-0.1-0.2c0-0.1-0.1-2.9,0.9-3.8c0.3-0.2,0.6-0.3,1-0.3
									c0.4,0.1,0.7,0.3,0.8,0.7c0.2,1.1-1.3,3-2.3,3.5C217.5,405.8,217.5,405.8,217.5,405.8z M218.9,402c-0.2,0-0.3,0.1-0.5,0.2
									c-0.6,0.5-0.7,2.1-0.7,3c0.9-0.7,1.9-2.2,1.7-2.9c0-0.1-0.1-0.3-0.4-0.3C219,402,218.9,402,218.9,402z"/>
								<g>
									<polygon class="st14" points="208.4,384.1 218,383.6 217.1,396.5 207.6,396.5 									"/>
								</g>
								<path class="st11" d="M160.8,275.9c0,0,72.4,11.1,71.2,27.7c-2.1,30-12.1,88.6-12.1,88.6l-14.3,0.2c0,0-3.4-60.1,2-82.1
									c-17.8,0-68-0.6-74.9-9.8c-7.6-10.1,0.2-26,0.2-26L160.8,275.9z"/>
								<polygon class="st9" points="203.9,393.6 221.2,393.3 222,384.2 203.1,385 								"/>
							</g>
							<path class="st9" d="M173.5,199.5c-5.8-1.1-32.1-0.8-32.1-0.8c-5.4-0.1-10.1,3.9-10.7,9.3c-0.9,8.1,4.2,26.2,4.4,35.5
								c0.2,11.4-1.9,15.9-2.2,31.2l50.2,2.3c0-30.7-1.3-56.2-2.6-68.4C180.1,204.3,179.3,200.6,173.5,199.5z"/>
							<path class="st17" d="M173.5,199.5c-5.8-1.1-32.1-0.8-32.1-0.8c-5.4-0.1-10.1,3.9-10.7,9.3c-0.9,8.1,4.2,26.2,4.4,35.5
								c0.2,11.4-1.9,15.9-2.2,31.2l50.2,2.3c0-30.7-1.3-56.2-2.6-68.4C180.1,204.3,179.3,200.6,173.5,199.5z"/>
							<g>
								<path class="st16" d="M180.4,209.2c1.6,5.4,3.1,10.9,4.8,16.4c1.6,5.4,3.3,10.9,5.2,16c0.5,1.3,1,2.5,1.4,3.8l0.8,1.8
									l0.1,0.2l0,0.1l0,0.1l0,0l0-0.1c-0.2-0.4-0.5-0.7-0.6-0.8c-0.3-0.3-0.5-0.4-0.5-0.4c0,0,0.3,0.3,0.8,0.5
									c0.4,0.2,1,0.4,1.5,0.6c1.1,0.4,2.4,0.7,3.7,1.1c5.2,1.3,10.9,2.4,16.5,3.5l-0.2,6.9c-3,0.4-6,0.6-9,0.7
									c-3,0.1-6,0.1-9.1-0.2c-1.6-0.1-3.1-0.3-4.8-0.6c-0.8-0.2-1.7-0.4-2.6-0.6c-0.9-0.3-1.9-0.6-3.2-1.3
									c-0.6-0.4-1.4-0.8-2.2-1.7c-0.4-0.4-0.9-1-1.3-1.7l-0.3-0.6l-1.1-2.1c-0.7-1.4-1.4-2.8-2-4.2c-1.2-2.8-2.3-5.6-3.4-8.4
									c-1-2.8-2-5.6-2.9-8.4c-1.8-5.6-3.5-11.2-5-17L180.4,209.2z"/>
								<g>
									<path class="st9" d="M166.1,203.6c6.9-7,15.6-3.2,19.4,9.5c3.8,12.6,3.1,13.6,3.1,13.6l-18.4,7.1
										C165.8,221.7,159.1,210.7,166.1,203.6z"/>
								</g>
								<path class="st16" d="M218.9,249.3l-1.5-0.1c-4.2,0-4.9,1.1-7.5,3.5l-1,5.3c6.7,3.5,10.4-0.3,10.4-0.3h6.3l-2.2-5.1
									C222.6,250.7,220.9,249.4,218.9,249.3z"/>
							</g>
						</g>
					</g>
				</g>
			</g>
		</g>
		<g>
			<path class="st9" d="M135.1,314.1h64.1c1.4,0,2.5-1.1,2.5-2.5v-4.1c0-1.4-1.1-2.5-2.5-2.5h-64.1c-1.4,0-2.5,1.1-2.5,2.5v4.1
				C132.6,312.9,133.7,314.1,135.1,314.1z"/>
			<g>
				<polygon class="st9" points="135.4,416.8 132.6,416.8 135.8,314.1 139.7,314.1 				"/>
				<polygon class="st18" points="135.4,416.8 132.6,416.8 135.8,314.1 139.7,314.1 				"/>
			</g>
			<g>
				<polygon class="st9" points="161.5,416.8 164.4,416.8 161.1,314.1 157.2,314.1 				"/>
				<polygon class="st18" points="161.5,416.8 164.4,416.8 161.1,314.1 157.2,314.1 				"/>
			</g>
			<g>
				<polygon class="st9" points="172.8,416.8 169.9,416.8 173.2,314.1 177.1,314.1 				"/>
				<polygon class="st18" points="172.8,416.8 169.9,416.8 173.2,314.1 177.1,314.1 				"/>
			</g>
			<g>
				<polygon class="st9" points="198.9,416.8 201.7,416.8 198.5,314.1 194.5,314.1 				"/>
				<polygon class="st18" points="198.9,416.8 201.7,416.8 198.5,314.1 194.5,314.1 				"/>
			</g>
			<g class="st19">
				<polygon class="st9" points="135.8,314.1 139.7,314.1 139.6,318.5 135.7,318.5 				"/>
				<polygon class="st9" points="161.2,318.5 157.3,318.5 157.2,314.1 161.1,314.1 				"/>
				<polygon class="st9" points="177.1,314.1 176.9,318.5 173.1,318.5 173.2,314.1 				"/>
				<polygon class="st9" points="198.6,318.5 194.7,318.5 194.5,314.1 198.5,314.1 				"/>
			</g>
		</g>
	</g>
</g>
<g id="Telecommuting">
	<g>
		<g>
			<path class="st9" d="M389,188.6H228.8c-5.3,0-9.4-4.3-9.1-9.7l6.1-101.4c0.3-5.3,4.9-9.7,10.2-9.7h160.1c5.3,0,9.4,4.3,9.1,9.7
				L399.2,179C398.9,184.3,394.3,188.6,389,188.6z"/>
			<polygon class="st9" points="250.3,167.2 265,217.7 308.9,167.2 			"/>
			<path class="st12" d="M381.2,147.8h-89.8c-3,0-5.3-2.4-5.1-5.4l3.4-56.8c0.2-3,2.8-5.4,5.7-5.4h89.8c3,0,5.3,2.4,5.1,5.4
				l-3.4,56.8C386.7,145.4,384.2,147.8,381.2,147.8z"/>
			<path class="st12" d="M333.2,172.3h-89.8c-3,0-5.3-2.4-5.1-5.4l3.4-56.8c0.2-3,2.8-5.4,5.7-5.4h89.8c3,0,5.3,2.4,5.1,5.4
				l-3.4,56.8C338.7,169.9,336.1,172.3,333.2,172.3z"/>
			<g class="st20">
				<path class="st4" d="M242.2,76.8c-0.1,1.6-1.4,3-2.9,3c-1.5,0-2.6-1.3-2.4-3c0.1-1.6,1.4-3,2.9-3S242.3,75.1,242.2,76.8z"/>
				<path class="st4" d="M252,76.8c-0.1,1.6-1.4,3-2.9,3c-1.5,0-2.6-1.3-2.4-3c0.1-1.6,1.4-3,2.9-3C251.1,73.8,252.2,75.1,252,76.8z
					"/>
				<path class="st4" d="M261.9,76.8c-0.1,1.6-1.4,3-2.9,3c-1.5,0-2.6-1.3-2.4-3c0.1-1.6,1.4-3,2.9-3
					C260.9,73.8,262,75.1,261.9,76.8z"/>
			</g>
			<path class="st10" d="M387.8,187.7H227.6c-2.6,0-5.1-1-6.8-2.9c-1.8-1.9-2.7-4.4-2.5-7l6.1-101.4c0.3-5.5,5-9.9,10.5-9.9H395
				c2.6,0,5.1,1,6.8,2.9c1.8,1.9,2.7,4.4,2.5,7l-6.1,101.4C397.9,183.2,393.2,187.7,387.8,187.7z M234.9,67c-5.2,0-9.7,4.2-10,9.4
				l-6.1,101.4c-0.2,2.5,0.7,4.9,2.4,6.6c1.7,1.8,4,2.8,6.5,2.8h160.1c5.2,0,9.7-4.2,10-9.4l6.1-101.4c0.2-2.5-0.7-4.9-2.4-6.6
				c-1.7-1.8-4-2.8-6.5-2.8H234.9z"/>
		</g>
		<g>
			<path class="st11" d="M301.1,128.4c-0.7,1.4-1.3,2.7-2,4c-0.7,1.3-1.4,2.5-2.1,3.8c-1.5,2.5-3,4.9-4.6,7.3
				c-0.8,1.2-1.7,2.4-2.5,3.6c-0.9,1.2-1.8,2.3-2.7,3.5c-1.8,2.3-3.9,4.5-6.1,6.6c-0.6,0.5-1.2,1-1.7,1.6c-0.6,0.5-1.2,1-1.8,1.5
				l-1.9,1.4c0,0-0.3,0.3-0.6,0.4c-0.3,0.2-0.5,0.3-0.8,0.4c-0.6,0.3-1.1,0.5-1.7,0.6c-1.2,0.3-2.4,0.3-3.6,0
				c-1.2-0.3-2.3-0.8-3.2-1.5c-0.5-0.4-0.9-0.8-1.3-1.3l-0.3-0.4l-0.1-0.2l0-0.1l-0.2-0.3l-0.7-1.3c-0.2-0.4-0.4-0.8-0.5-1.2
				c-0.7-1.6-1.1-3.1-1.5-4.7c-0.7-3-1.2-5.9-1.5-8.8c-0.3-2.9-0.4-5.7-0.4-8.7c0-1.9,1.6-3.4,3.5-3.4c1.6,0,2.8,1.1,3.3,2.5l0,0.1
				c1.5,5.1,3,10.4,4.9,15c0.5,1.1,1,2.2,1.5,3c0.1,0.2,0.3,0.4,0.4,0.6c0.1,0.2,0.3,0.3,0.4,0.5l0.1,0.1l0,0l0-0.1
				c0-0.1-0.1-0.1-0.1-0.2c-0.2-0.2-0.3-0.4-0.5-0.6c-0.4-0.3-0.9-0.6-1.4-0.7c-0.5-0.1-1-0.1-1.5,0c-0.3,0-0.5,0.1-0.8,0.2
				c-0.1,0.1-0.2,0.1-0.4,0.2c-0.1,0.1-0.3,0.2-0.2,0.1l1.3-1.2c0.4-0.4,0.8-0.8,1.2-1.3c0.4-0.4,0.8-0.9,1.2-1.3
				c3.2-3.8,6.1-8.1,8.9-12.5c1.4-2.2,2.7-4.5,4-6.8l1.9-3.5l1.8-3.4l0.1-0.2c1.8-3.4,6-4.6,9.3-2.8
				C301.3,121.2,302.6,125.1,301.1,128.4z"/>
			<path class="st21" d="M259.9,134.4l-4.9-2.8l5.2-5.4c0,0,2.2,1.6,4.2,3.8c1.3,1.4,0.9,3.7-0.8,4.5l0,0
				C262.5,135.2,261.1,135.1,259.9,134.4z"/>
			<path class="st21" d="M253.9,125.9l2.6-1.9c0.7-0.5,1.7-0.4,2.2,0.3l1.5,1.9l-5.2,5.4l-1.6-3.8
				C253,127.2,253.3,126.4,253.9,125.9z"/>
			<path class="st4" d="M290.6,123.9c0.8-2.7,3-4.7,5.8-5.2c2.1-0.4,3.1-0.7,5.9-0.9c4.7-0.3,12.5,0,17.9,0.3
				c3.1,0.2,6.3,0.6,8.8,1.1l0.1,0c2.8,0.5,4.7,3.1,4.2,5.9c-1.2,7.2-4.9,19.8-5.3,31.6c-0.5,15.6-0.3,24.5-0.6,28.3l-40-0.8
				C284.6,146.3,288,132.5,290.6,123.9z"/>
			<path class="st11" d="M330.1,118.7L330.1,118.7c-2.8-0.5-6.1-0.9-9.4-1.1c-0.6,0-1.2-0.1-1.8-0.1c-1.8,7.2-12.2,19.4-15.3,37.9
				c-1.2-15.4-2.2-31.6-0.4-37.9c-1.1,0-6.3,0.3-8.5,0.7c-2.9,0.5-5.3,2.8-6.3,5.9c-2.5,7.2-7.2,23.5-4.3,63.3h44.5
				c0.3-4-0.7-12.4,0.9-25.3c1.6-12.5,3.8-29.6,5.1-37.2C335.1,122,333.1,119.2,330.1,118.7z"/>
			<path class="st13" d="M302.6,185.4c-0.1,0-0.3-0.1-0.3-0.2c-0.9-11.2,0.8-27.4,0.8-27.6c0-0.1,0.2-0.3,0.3-0.2
				c0.1,0,0.3,0.1,0.2,0.3c0,0.2-1.8,16.3-0.8,27.5C302.9,185.2,302.8,185.3,302.6,185.4C302.6,185.4,302.6,185.4,302.6,185.4z"/>
			<path class="st19" d="M328.6,134.5c-1.7,7.5-0.8,17.8,1,27.3c1.3-10.6,3.1-24.4,4.4-32.9C332.1,127.7,329.9,128.5,328.6,134.5z"
				/>
			<path class="st21" d="M303.1,117.8c5.2-1.1,6.1-4.3,5.7-7.9c-0.1-0.9-0.2-1.8-0.4-2.6l6.5-5.3l4.8-3.9
				c-1.3,5.7-2.7,16.2,1.2,20.1c0,0-3.2,5.3-12.1,4.6C301.2,122.3,303.1,117.8,303.1,117.8z"/>
			<polygon class="st3" points="311,121.5 309.5,122.9 314.1,124.6 313.5,122.9 			"/>
			<path class="st2" d="M314.5,127.1c0,0-1.8-4.6-3.5-5.5c6-1.6,8.9-4.9,8.9-4.9l2.7,1.1C322.6,117.7,323.5,122.9,314.5,127.1z"/>
			<polygon class="st3" points="308.4,121.2 309.5,122.9 304.7,123.3 305.7,121.8 			"/>
			<path class="st2" d="M302.3,125.8c0,0,2.6-2.9,6.2-4.6c-2.6-0.8-2.8-4.4-2.8-4.4l-2.5,0.5C303.1,117.3,298.4,121.8,302.3,125.8z"
				/>
			<path class="st14" d="M308.4,107.3c0.2,0.9,0.4,1.8,0.4,2.6c2.4-0.4,5.7-3,6-5.5c0.1-0.9,0.1-1.8,0.1-2.5L308.4,107.3z"/>
			<path class="st11" d="M300.5,81.1c-2.3,2.9-2.1,13.2,2.8,13.3C308.2,94.5,304.7,75.9,300.5,81.1z"/>
			<path class="st21" d="M321.6,88.6c-0.5,7.8-0.4,12.4-4.3,16.4c-5.9,6.1-15.5,2.6-17.4-5.2c-1.7-7-0.6-18.6,7.1-21.8
				C314.5,75,322.1,80.8,321.6,88.6z"/>
			<path class="st11" d="M317.8,82.1c-4.9,4.9,1.5,8.4-1,11.1c4.6,2.4,2.9,4.2,2.9,4.2s-0.8,1.9,0,4.1c5.2-1.3,14.9-18.7,4.3-21.3
				C317.7,83,317.8,82.1,317.8,82.1z"/>
			<path class="st11" d="M319.8,85.6c-4.7,0.7-10.5-1.5-14.1-3.4s-4.2,1.7-2.8,2.8c-2.3,0.1-5.3-1.8-4.5-5.9
				c0.7-3.8,5.6-7.3,12.6-4.1c4.9,2.2,11-0.7,13.4,1.9C326.7,79.5,322.9,85.2,319.8,85.6z"/>
			<path class="st11" d="M323,80.6c3.1-0.4,3.3-2.4,2.4-5.8c3.4,4.8,2,6.3,0,7.4C323.2,81.4,323,80.6,323,80.6z"/>
			<path class="st21" d="M323.7,94.6c-0.8,1.7-2.1,2.9-3.4,3.5c-1.9,0.9-2.9-0.9-2.4-3c0.5-1.9,2-4.6,4-4.6
				C323.9,90.5,324.6,92.7,323.7,94.6z"/>
			<path class="st11" d="M309.5,91c0,0.6-0.3,1.2-0.8,1.2c-0.4,0-0.7-0.5-0.7-1.1c0-0.6,0.3-1.2,0.8-1.2
				C309.1,89.9,309.5,90.4,309.5,91z"/>
			<path class="st11" d="M302.3,91.1c0,0.6-0.3,1.2-0.8,1.2c-0.4,0-0.7-0.5-0.7-1.1c0-0.6,0.3-1.2,0.8-1.2
				C302,89.9,302.3,90.4,302.3,91.1z"/>
			<path class="st22" d="M305,91.3c0,0-1.4,3.7-3,5.5c1.1,1,3,0.5,3,0.5L305,91.3z"/>
			<path class="st11" d="M307.5,99c2.5-0.3,3.6-2,3.7-2.1c0.1-0.1,0-0.2-0.1-0.3c-0.1-0.1-0.2,0-0.3,0.1c0,0-1.3,2-4.1,2
				c-0.1,0-0.2,0.1-0.2,0.2c0,0.1,0.1,0.2,0.2,0.2C307,99,307.3,99,307.5,99z"/>
			<path class="st11" d="M312.9,88.5c0.1,0,0.1,0,0.2-0.1c0.2-0.1,0.2-0.4,0.1-0.5c-1.2-1.6-3-1.5-3-1.5c-0.2,0-0.4,0.2-0.3,0.4
				c0,0.2,0.2,0.4,0.4,0.3c0.1,0,1.4-0.1,2.4,1.2C312.7,88.4,312.8,88.5,312.9,88.5z"/>
			<path class="st11" d="M299.4,88.8c0.1,0,0.2-0.1,0.3-0.2c0.7-1.5,2.1-1.7,2.1-1.7c0.2,0,0.3-0.2,0.3-0.4c0-0.2-0.2-0.3-0.4-0.3
				c0,0,0,0,0,0c-0.1,0-1.8,0.3-2.7,2.1c-0.1,0.2,0,0.4,0.2,0.5C299.3,88.8,299.3,88.8,299.4,88.8z"/>
			<path class="st11" d="M335.8,123.2c1.2,2.6,2.2,5,3.2,7.5c1,2.5,1.9,5,2.8,7.6c1.7,5.1,3.2,10.4,4.2,15.9
				c0.2,1.4,0.5,2.8,0.7,4.2l0.1,1.1l0.1,0.5l0,0.3l0,0.4c0.1,1,0.1,2,0,3.1c-0.2,2.1-1,4.5-2.3,6.3c-1.3,1.9-2.9,3.3-4.5,4.2
				c-1.6,1-3.2,1.6-4.8,2c-1.6,0.4-3.1,0.7-4.6,0.8c-1.5,0.1-3,0.2-4.4,0.1c-1.5-0.1-2.8-0.2-4.4-0.5c-1.9-0.3-3.1-2.1-2.8-4
				c0.2-1.4,1.3-2.5,2.7-2.8l0.4-0.1c1-0.2,2.3-0.5,3.4-0.8c1.1-0.3,2.3-0.7,3.3-1c2.1-0.8,4-1.8,5-2.8c0.5-0.5,0.8-1,0.9-1.3
				c0.1-0.3,0.1-0.6,0-1.1c0-0.2-0.1-0.5-0.2-0.8l-0.4-1.6c-0.2-1.1-0.6-2.3-0.9-3.5c-0.6-2.3-1.3-4.7-2.1-7.1
				c-0.8-2.4-1.6-4.7-2.5-7.1c-0.9-2.4-1.8-4.7-2.7-7c-0.9-2.3-1.9-4.7-2.8-6.9l0-0.1c-1.5-3.5,0.1-7.6,3.7-9
				C330.2,118.3,334.2,119.9,335.8,123.2z"/>
			<path class="st21" d="M318.7,172.9l-4.4,2.1l7.6,2.7c0,0,5.1-1.6,2.6-4.4l-1.4-0.4C320.9,172.1,319.9,172.2,318.7,172.9z"/>
			<path class="st21" d="M314.9,180.4l3.3,0.6c1,0.2,2-0.3,2.5-1.1l1.2-2.2l-7.6-2.7l-1.1,2.1C312.5,178.4,313.3,180.1,314.9,180.4z
				"/>
		</g>
	</g>
</g>
</svg>
