<?xml version="1.0" encoding="utf-8"?>
<!-- Generator: Adobe Illustrator 24.0.2, SVG Export Plug-In . SVG Version: 6.00 Build 0)  -->
<svg version="1.1" id="Layer_1" xmlns="http://www.w3.org/2000/svg" xmlns:xlink="http://www.w3.org/1999/xlink" x="0px" y="0px"
	 viewBox="0 0 258.9 96.5" style="enable-background:new 0 0 258.9 96.5;" xml:space="preserve">
<style type="text/css">
	.st0{enable-background:new    ;}
	.st1{fill:#FFFFFF;}
	.st2{fill:#00ACE6;}
	.st3{fill:#FCB640;}
	.st4{fill:#8BC53F;}
	.st5{fill:#00984C;}
	.st6{fill:#8D953D;}
	.st7{fill:#25773F;}
	.st8{fill:#F6921E;}
	.st9{fill:#57612F;}
	.st10{fill:#EC7731;}
	.st11{fill:#564A20;}
</style>
<g>
	<g class="st0">
		<path class="st1" d="M93.5,59.7V32.5H112v5.7h-11.5v5.5h9.9v5.7h-9.9v10.3H93.5z"/>
		<path class="st1" d="M115.1,59.7V32.5h7v27.2H115.1z"/>
		<path class="st1" d="M124.4,59.7l9.6-13.8l-9.5-13.4h8.6l5.1,7.3l5.2-7.3h8l-9.2,13l10,14.2h-8.6l-5.7-8.2l-5.8,8.2H124.4z"/>
	</g>
	<g class="st0">
		<path class="st1" d="M151.5,46c0-9.3,4.2-13.9,12.6-13.9c2.9,0,5.7,0.5,8.3,1.6v2.8c-2.6-1.1-5.2-1.6-8-1.6c-3.4,0-6,0.9-7.6,2.7
			s-2.4,4.6-2.4,8.5s0.8,6.7,2.4,8.5c1.6,1.8,4.1,2.7,7.6,2.7c2.8,0,5.4-0.5,8-1.6v2.8c-2.6,1-5.3,1.5-8.2,1.5h-0.1
			C155.7,60,151.5,55.3,151.5,46z"/>
		<path class="st1" d="M174.5,46c0-9.3,4.2-13.9,12.6-13.9c8.4,0,12.6,4.6,12.6,13.9s-4.2,14-12.6,14C178.7,60,174.5,55.3,174.5,46z
			 M179.8,37.6c-1.6,1.8-2.3,4.6-2.3,8.5s0.8,6.7,2.3,8.5s4,2.7,7.3,2.7c3.4,0,5.8-0.9,7.4-2.7c1.5-1.8,2.3-4.6,2.3-8.5
			s-0.8-6.7-2.3-8.5s-4-2.7-7.4-2.7C183.8,34.9,181.3,35.8,179.8,37.6z"/>
		<path class="st1" d="M203.5,59.7V32.5h8.5c8.5,0,12.8,4.5,12.8,13.6s-4.3,13.6-12.8,13.6C212,59.7,203.5,59.7,203.5,59.7z
			 M206.5,56.9h5.4c3.5,0,6-0.9,7.6-2.6c1.6-1.7,2.4-4.5,2.4-8.2s-0.8-6.5-2.4-8.2c-1.6-1.7-4.1-2.6-7.6-2.6h-5.4V56.9z"/>
		<path class="st1" d="M228.5,59.7V32.5h17.2v2.8h-14.2v9.4H244v2.8h-12.5v9.4h14.2v2.8C245.7,59.7,228.5,59.7,228.5,59.7z"/>
	</g>
	<g class="st0">
		<path class="st1" d="M93.2,69.7c0-2.2,1-3.3,3-3.3s3,1.1,3,3.3s-1,3.3-3,3.3S93.2,71.9,93.2,69.7z M94.5,67.6
			c-0.4,0.4-0.6,1.1-0.6,2s0.2,1.6,0.6,2s1,0.6,1.8,0.6s1.4-0.2,1.8-0.6s0.6-1.1,0.6-2s-0.2-1.6-0.6-2s-1-0.6-1.8-0.6
			S94.9,67.2,94.5,67.6z"/>
		<path class="st1" d="M113.7,72.9v-6.5h2.4c0.7,0,1.3,0.2,1.6,0.5c0.4,0.3,0.6,0.8,0.6,1.4c0,0.3,0,0.5-0.1,0.8
			c-0.1,0.2-0.2,0.4-0.3,0.5c-0.1,0.1-0.2,0.2-0.4,0.3s-0.3,0.2-0.4,0.2s-0.2,0.1-0.3,0.1l1.8,2.7h-0.8l-1.7-2.6h-1.7v2.6H113.7z
			 M114.4,69.6h1.6c0.3,0,0.6,0,0.8-0.1c0.2-0.1,0.4-0.2,0.5-0.3s0.2-0.3,0.2-0.4s0.1-0.3,0.1-0.5s0-0.3-0.1-0.5
			c0-0.1-0.1-0.3-0.2-0.4s-0.3-0.2-0.5-0.3c-0.2-0.1-0.5-0.1-0.8-0.1h-1.6V69.6z"/>
		<path class="st1" d="M149,72.9v-6.5h2c2,0,3,1.1,3,3.2s-1,3.2-3,3.2h-2V72.9z M149.7,72.3h1.3c0.8,0,1.4-0.2,1.8-0.6
			s0.6-1.1,0.6-2s-0.2-1.5-0.6-2s-1-0.6-1.8-0.6h-1.3V72.3z"/>
		<path class="st1" d="M168.4,72.9v-6.5h4.1v0.7h-3.4v2.2h3V70h-3v2.2h3.4v0.7C172.5,72.9,168.4,72.9,168.4,72.9z"/>
		<path class="st1" d="M186.6,68.1c0-0.5,0.2-0.9,0.5-1.3c0.4-0.4,0.9-0.5,1.7-0.5c0.6,0,1.1,0.1,1.6,0.4v0.7
			c-0.5-0.3-1-0.4-1.6-0.4c-0.5,0-0.9,0.1-1.2,0.3s-0.4,0.5-0.4,0.8c0,0.2,0.1,0.4,0.3,0.6c0.2,0.1,0.4,0.3,0.7,0.3
			c0.3,0.1,0.5,0.2,0.9,0.3c0.3,0.1,0.6,0.2,0.9,0.4s0.5,0.3,0.7,0.6c0.2,0.3,0.3,0.6,0.3,1c0,0.5-0.2,1-0.6,1.3
			c-0.4,0.3-1,0.5-1.7,0.5s-1.3-0.2-1.9-0.5v-0.8c0.5,0.3,1.1,0.5,1.9,0.5c1.1,0,1.7-0.3,1.7-1c0-0.3-0.1-0.5-0.3-0.7
			s-0.4-0.3-0.7-0.4l-0.9-0.3c-0.3-0.1-0.6-0.2-0.9-0.3s-0.5-0.3-0.7-0.5C186.7,68.8,186.6,68.5,186.6,68.1z"/>
		<path class="st1" d="M205.3,72.9v-6.5h0.7v6.5H205.3z"/>
		<path class="st1" d="M220.4,69.7c0-2.2,1-3.3,3-3.3c0.7,0,1.4,0.1,2,0.4v0.7c-0.6-0.3-1.3-0.4-2-0.4c-0.8,0-1.4,0.2-1.8,0.6
			c-0.4,0.4-0.6,1.1-0.6,2s0.2,1.6,0.6,2c0.4,0.4,1,0.6,1.8,0.6c0.5,0,1-0.1,1.5-0.2v-2h-1.6v-0.7h2.3v3.1c-0.7,0.3-1.5,0.5-2.3,0.5
			C221.4,73,220.4,71.9,220.4,69.7z"/>
		<path class="st1" d="M240.2,72.9v-6.5h0.8l3.9,5.5v-5.5h0.7v6.5h-0.8l-3.9-5.5v5.5H240.2z"/>
	</g>
	<g>
		<polygon class="st2" points="55.3,26.9 55.3,5.7 26.7,22.2 26.7,26.9 41,18.7 		"/>
		<polygon class="st2" points="26.7,60 26.7,76.5 41,68.3 41,68.3 		"/>
		<polygon class="st3" points="69.6,18.7 55.3,26.9 69.6,35.2 		"/>
		<polygon class="st3" points="55.3,76.5 41,68.3 41,89.5 69.6,73 69.6,68.3 		"/>
		<polygon class="st4" points="83.9,43.5 69.6,35.2 69.6,51.7 		"/>
		<polygon class="st4" points="12.3,35.2 26.7,43.5 26.7,26.9 		"/>
		<polygon class="st5" points="26.7,43.5 41,51.7 41,35.2 55.3,26.9 41,18.7 26.7,26.9 		"/>
		<polygon class="st6" points="55.3,60 55.3,60 69.6,51.7 69.6,35.2 55.3,26.9 		"/>
		<polygon class="st7" points="55.3,26.9 41,35.2 41,51.7 55.3,60 		"/>
		<polygon class="st8" points="83.9,60 69.6,51.7 69.6,68.3 		"/>
		<polygon class="st8" points="12.3,51.7 26.7,60 26.7,43.5 		"/>
		<polygon class="st9" points="41,51.7 26.7,43.5 26.7,60 41,68.3 		"/>
		<polygon class="st10" points="55.3,60 41,68.3 55.3,76.5 69.6,68.3 69.6,51.7 		"/>
		<polygon class="st11" points="41,51.7 41,68.3 55.3,60 		"/>
	</g>
</g>
</svg>
